<svg width="33" height="29" viewBox="0 0 33 29" fill="none" xmlns="http://www.w3.org/2000/svg">
<g clip-path="url(#clip0_843_5)">
<path d="M13.0737 3.38184C16.4955 3.38184 19.8955 3.40408 23.3173 3.38184C24.787 3.38184 25.796 4.02702 26.454 5.33965C27.485 7.43095 28.5159 9.5 29.6127 11.5691C29.8978 12.103 30.2926 12.6147 30.7094 13.0597C31.85 14.261 32.3107 15.6404 32.1791 17.2868C32.0913 18.2657 32.1791 19.2446 32.1571 20.2012C32.1571 21.5139 31.3455 22.337 30.0514 22.3148C29.6785 22.3148 29.503 22.4038 29.3714 22.8042C28.9327 24.0946 27.6166 24.9845 26.3224 24.94C24.9186 24.8955 23.6902 23.9834 23.2954 22.6485C23.2076 22.3815 23.098 22.3148 22.8348 22.3148C18.9742 22.3148 15.0917 22.3148 11.2311 22.3148C10.946 22.3148 10.8363 22.4038 10.7486 22.6707C10.3318 24.0056 9.08152 24.9178 7.69961 24.94C6.33964 24.9623 5.04548 24.0279 4.62871 22.6707C4.54097 22.4038 4.4313 22.3148 4.14615 22.3148C3.51003 22.337 2.87392 22.337 2.2378 22.2925C0.987508 22.159 0.0223688 21.1356 -0.0215011 19.8453C-0.0434361 19.2668 -0.0215011 18.6884 -0.0215011 18.1099C-0.0215011 14.1053 -0.0215011 10.1007 -0.0215011 6.09608C-0.0215011 4.7612 0.746223 3.7378 1.97458 3.44858C2.2378 3.38184 2.50102 3.38184 2.76424 3.38184C6.22997 3.38184 9.65183 3.38184 13.0737 3.38184ZM29.5688 21.0022C29.7223 21.0022 29.832 21.0022 29.9636 21.0022C30.7094 21.0022 30.8849 20.8242 30.8849 20.0677C30.8849 19.0666 30.8191 18.0432 30.9068 17.042C30.9946 15.8629 30.6217 14.9285 29.8759 14.0163C29.3714 13.4156 28.9327 12.9039 28.0772 13.0152C27.9237 13.0374 27.7701 12.9707 27.6385 12.9707C26.0373 12.8372 24.436 12.7259 22.8348 12.5925C21.8915 12.5035 21.2774 11.9473 21.0361 11.0129C20.5316 8.9883 20.0271 6.96375 19.5445 4.93919C19.5006 4.73896 19.4129 4.64997 19.2155 4.64997C13.7098 4.64997 8.20412 4.64997 2.6765 4.64997C1.88684 4.64997 1.33847 5.18391 1.33847 6.00709C1.33847 10.5457 1.33847 15.1065 1.33847 19.645C1.33847 20.446 1.86491 20.9799 2.6765 21.0022C3.22488 21.0022 3.79519 21.0022 4.34356 21.0022C4.56291 21.0022 4.62871 20.9132 4.69452 20.7129C5.13322 19.2891 6.33964 18.3769 7.78735 18.3769C9.21313 18.3769 10.4195 19.2891 10.8582 20.7129C10.8802 20.8019 10.9241 20.8909 10.946 20.9577C15.0478 20.9577 19.1497 20.9577 23.2515 20.9577C23.8657 19.2223 24.9186 18.3547 26.454 18.3769C27.8798 18.3992 28.9546 19.2668 29.5688 21.0022ZM20.7948 4.67221C20.8167 4.78345 20.7948 4.87244 20.8167 4.96144C21.2993 6.87475 21.7599 8.81032 22.2425 10.7236C22.3302 11.1241 22.5277 11.2798 22.9225 11.3021C24.5237 11.4356 26.125 11.5691 27.7263 11.7025C27.8579 11.7248 28.0114 11.7025 28.1869 11.7025C27.2656 9.83372 26.3443 8.03164 25.445 6.22956C25.3353 6.02933 25.2476 5.80686 25.116 5.60662C24.765 5.05043 24.2605 4.71671 23.6244 4.69446C22.7251 4.64997 21.7819 4.67221 20.7948 4.67221ZM26.3663 23.6052C27.4411 23.6052 28.2966 22.7597 28.3185 21.6918C28.3404 20.6017 27.485 19.7118 26.4102 19.7118C25.3573 19.7118 24.4799 20.5572 24.4579 21.6473C24.436 22.7152 25.2695 23.6052 26.3663 23.6052ZM9.62989 21.6473C9.62989 20.5572 8.79636 19.6895 7.72155 19.6895C6.64673 19.6895 5.8132 20.5572 5.8132 21.6473C5.8132 22.7597 6.66867 23.6052 7.74348 23.6052C8.79636 23.6052 9.62989 22.7597 9.62989 21.6473Z" fill="#01A4EF"/>
<path d="M3.35807 10.8177H6.33469V11.6549H4.56732V12.3352H6.0769V13.1219H4.56732V14.7139H3.35807V10.8177ZM6.99912 14.7139V10.8177H9.00568C9.37776 10.8177 9.66213 10.8496 9.8588 10.9134C10.0555 10.9771 10.214 11.0959 10.3345 11.2695C10.455 11.4414 10.5153 11.6513 10.5153 11.8994C10.5153 12.1155 10.4692 12.3024 10.3771 12.4601C10.2849 12.6161 10.1582 12.7427 9.997 12.8402C9.89424 12.9022 9.75338 12.9536 9.57443 12.9943C9.71794 13.0422 9.82248 13.09 9.88804 13.1379C9.93233 13.1697 9.99612 13.238 10.0794 13.3425C10.1644 13.447 10.2211 13.5276 10.2495 13.5843L10.8315 14.7139H9.47078L8.82761 13.5232C8.74611 13.3691 8.67347 13.269 8.60968 13.2229C8.52287 13.1627 8.42453 13.1325 8.31468 13.1325H8.20837V14.7139H6.99912ZM8.20837 12.3964H8.71599C8.77092 12.3964 8.87722 12.3786 9.03492 12.3432C9.11465 12.3273 9.17932 12.2865 9.22893 12.2209C9.28031 12.1554 9.306 12.0801 9.306 11.995C9.306 11.8692 9.26613 11.7727 9.1864 11.7054C9.10667 11.638 8.95696 11.6044 8.73725 11.6044H8.20837V12.3964ZM11.2169 10.8177H14.4433V11.6495H12.4235V12.2688H14.2972V13.0634H12.4235V13.8315H14.5018V14.7139H11.2169V10.8177ZM15.1503 10.8177H18.3767V11.6495H16.3569V12.2688H18.2306V13.0634H16.3569V13.8315H18.4352V14.7139H15.1503V10.8177Z" fill="#01A4EF"/>
</g>
<defs>
<clipPath id="clip0_843_5">
<rect width="32.2006" height="28.9" fill="white"/>
</clipPath>
</defs>
</svg>
