<?xml version="1.0" encoding="utf-8"?>
<!-- Generator: Adobe Illustrator 26.0.1, SVG Export Plug-In . SVG Version: 6.00 Build 0)  -->
<svg version="1.1" id="Layer_1" xmlns="http://www.w3.org/2000/svg" xmlns:xlink="http://www.w3.org/1999/xlink" x="0px" y="0px"
	 viewBox="0 0 146.8 129.9" style="enable-background:new 0 0 146.8 129.9; fill:#01A4EF;" xml:space="preserve">
<g>
	<path d="M74.6,128.5C39.5,128.5,11,99.9,11,64.8C11,29.7,39.5,1.3,74.7,1.3c35.2,0,63.6,28.4,63.6,63.6
		C138.3,100,109.8,128.5,74.6,128.5z M20.9,64.9c0,29.6,24.1,53.6,53.6,53.6c29.7,0,53.8-24,53.8-53.6c0-29.6-24.1-53.7-53.8-53.6
		C45,11.2,20.9,35.3,20.9,64.9z"/>
	<path d="M109.8,81.2c-9,11.5-20.8,17.6-35.5,17.5C60,98.6,48.5,92.6,39.7,81.4C63.1,95.5,86.5,95.4,109.8,81.2z"/>
	<path d="M94.5,64.8c-5.6,0-9.9-4.4-9.9-10c0-5.5,4.4-9.8,9.9-9.7c5.6,0,10,4.5,9.9,10C104.4,60.5,100,64.8,94.5,64.8z"/>
	<path d="M54.6,64.8c-5.5-0.1-9.8-4.4-9.8-9.9c0-5.6,4.4-9.9,10.1-9.8c5.6,0.1,9.9,4.4,9.8,10.1C64.6,60.6,60.2,64.8,54.6,64.8z"/>
</g>
</svg>
