<?xml version="1.0" encoding="utf-8"?>
<!-- Generator: Adobe Illustrator 26.0.1, SVG Export Plug-In . SVG Version: 6.00 Build 0)  -->
<svg version="1.1" id="Layer_1" xmlns="http://www.w3.org/2000/svg" xmlns:xlink="http://www.w3.org/1999/xlink" x="0px" y="0px"
	 viewBox="0 0 146.8 129.9" style="enable-background:new 0 0 146.8 129.9; fill:#01A4EF;" xml:space="preserve">
<g>
	<path d="M61,93.2c0-6-0.1-11.7,0-17.3c0-1.4-0.4-1.8-1.7-1.9c-6.1-0.6-11.1-5.9-11.2-12.2c-0.2-7.8-0.1-15.5-0.1-23.3
		c0-6.3,0.2-12.5,0-18.8C47.8,12.2,53.8,6,61.8,6c22.5,0.1,45,0,67.5,0c7.9,0,13.5,5.6,13.6,13.5c0,13.5-0.1,27.1,0.1,40.6
		c0.1,7.9-5.7,14.2-13.9,14c-9.8-0.1-19.6,0-29.5,0c-3.3,0-6.6,0-10,0c-0.7,0-1.5,0.3-2.1,0.7c-8.4,5.8-16.7,11.6-25,17.4
		C62.1,92.5,61.7,92.8,61,93.2z M66.6,82.7c0.9-0.7,1.6-1.1,2.2-1.5c5.6-3.9,11.2-7.8,16.8-11.7c0.7-0.5,1.7-0.8,2.5-0.8
		c13.5-0.1,27.1,0,40.6,0c5.7,0,8.6-2.9,8.6-8.6c0-13.3,0-26.7,0-40c0-1.3-0.2-2.7-0.7-3.9c-1.4-3.2-4-4.5-7.4-4.5c-9,0-18,0-27,0
		c-13.4,0-26.9,0-40.3,0c-5,0-8.2,3.1-8.2,7.9c0,13.8,0,27.5,0,41.3c0,4.7,3.2,7.8,7.9,7.8c1.6,0,3.2,0,5,0
		C66.6,73.3,66.6,77.8,66.6,82.7z"/>
	<path d="M73.5,54.9c0-1.8,0-3.5,0-5.4c14.7,0,29.2,0,43.9,0c0,1.8,0,3.5,0,5.4C102.8,54.9,88.2,54.9,73.5,54.9z"/>
	<path d="M73.5,31.2c0-1.8,0-3.5,0-5.4c14.6,0,29.2,0,43.9,0c0,1.8,0,3.6,0,5.4C102.8,31.2,88.2,31.2,73.5,31.2z"/>
	<path d="M73.5,43c0-1.8,0-3.5,0-5.4c14.7,0,29.2,0,43.9,0c0,1.8,0,3.5,0,5.4C102.8,43,88.2,43,73.5,43z"/>
</g>
<path d="M95.4,74.2h-5c0,8.2,0,16.4,0,24.7c0,5.2-2.7,7.9-7.9,7.9c-12.3,0-24.7,0-37,0c-0.8,0-1.6,0.3-2.3,0.7
	c-5.1,3.5-10.2,7.1-15.3,10.7c-0.6,0.4-1.1,0.8-2,1.4c0-4.4,0-8.5,0-12.8c-1.6,0-3.1,0-4.6,0c-4.3,0-7.2-2.9-7.2-7.1
	c0-12.6,0-25.1,0-37.7c0-4.4,2.9-7.1,7.5-7.2c8.8,0,17.7,0,26.5,0v-5c-8.8,0-17.7,0-26.5-0.1c-7.3,0-12.8,5.6-12.6,12.6
	c0.2,5.7,0,11.4,0,17.1c0,7.1-0.1,14.1,0.1,21.2c0.1,5.7,4.7,10.5,10.2,11.1c1.2,0.1,1.6,0.5,1.6,1.7c-0.1,5.2,0,10.4,0,15.8
	c0.6-0.4,1-0.6,1.3-0.9c7.6-5.3,15.2-10.6,22.8-15.8c0.5-0.4,1.3-0.6,1.9-0.6c3-0.1,6.1,0,9.1,0c9,0,17.9-0.1,26.9,0
	c7.5,0.1,12.7-5.6,12.7-12.8C95.4,90.7,95.4,82.5,95.4,74.2z"/>
</svg>
