<?xml version="1.0" encoding="utf-8"?>
<!-- Generator: Adobe Illustrator 26.0.1, SVG Export Plug-In . SVG Version: 6.00 Build 0)  -->
<svg version="1.1" id="Layer_1" xmlns="http://www.w3.org/2000/svg" xmlns:xlink="http://www.w3.org/1999/xlink" x="0px" y="0px"
	 viewBox="0 0 146.8 129.9" style="enable-background:new 0 0 146.8 129.9; fill:#01A4EF;" xml:space="preserve">
<g>
	<path d="M73.3,19.8c19.7,0,39.4,0.2,59-0.1c7.5-0.1,12.9,5.5,12.8,12.8c-0.1,23.3,0,46.7,0,70c0,8-5,13-12.9,13
		c-39.4,0-78.7,0-118.1,0c-8,0-13-5-13-13c0-23.3,0.1-46.7,0-70C1.1,25,6.7,19.6,14,19.7C33.7,19.9,53.5,19.8,73.3,19.8z M6.9,62.4
		c0,1-0.1,1.8-0.1,2.7c0,12.6,0,25.1,0,37.7c0,5.2,2.1,7.3,7.4,7.3c39.4,0,78.7,0,118.1,0c5.3,0,7.3-2.1,7.3-7.3
		c0-12.6,0-25.1,0-37.7c0-0.8-0.1-1.6-0.1-2.6C95.2,62.4,51.1,62.4,6.9,62.4z M6.8,56.7c44.4,0,88.4,0,132.5,0c0-5.2,0-10.2,0-15.2
		c-44.3,0-88.3,0-132.5,0C6.8,46.6,6.8,51.5,6.8,56.7z M139.4,35.6c0.7-8.5-1.2-10.6-9.4-10.6c-38,0-76,0-114.1,0
		c-7.7,0-10,2.8-8.8,10.6C51.1,35.6,95.1,35.6,139.4,35.6z"/>
	<path d="M39.1,79.4c-5.1,0-10.3,0-15.4,0c-2,0-3.8-0.3-3.9-2.6c-0.1-2.3,1.7-2.9,3.7-2.9c10.7,0,21.3,0,32,0c1.9,0,3.5,0.7,3.5,2.8
		c0,2-1.6,2.7-3.6,2.7C49.9,79.4,44.5,79.4,39.1,79.4z"/>
	<path d="M39.1,96.5c-5.2,0-10.5,0-15.7,0c-1.9,0-3.5-0.4-3.6-2.6c-0.1-2.2,1.5-2.7,3.5-2.7c10.7,0,21.4,0,32,0
		c1.9,0,3.6,0.5,3.6,2.6c0,2.3-1.8,2.7-3.8,2.7C49.8,96.4,44.5,96.5,39.1,96.5z"/>
	<path d="M115.3,91.2c2.7,0,5.4,0,8.1,0c1.7,0,3,0.7,3.1,2.5c0,2-1.2,2.8-3.1,2.7c-5.3,0-10.7,0-16,0c-1.9,0-3.2-0.9-3.1-2.8
		c0.1-1.8,1.4-2.5,3.1-2.4C110,91.3,112.7,91.2,115.3,91.2z"/>
</g>
</svg>
