<?xml version="1.0" encoding="utf-8"?>
<!-- Generator: Adobe Illustrator 26.0.1, SVG Export Plug-In . SVG Version: 6.00 Build 0)  -->
<svg version="1.1" id="Layer_1" xmlns="http://www.w3.org/2000/svg" xmlns:xlink="http://www.w3.org/1999/xlink" x="0px" y="0px"
	 viewBox="0 0 146.8 129.9" style="enable-background:new 0 0 146.8 129.9; fill:#01A4EF;" xml:space="preserve">
<g>
	<path d="M30.1,102.7C24.8,92.4,19.6,82.3,14.4,72c4.1-2.6,8.1-5,12-7.6c10.8-7.2,22.2-7.2,34-3.2c2.4,0.8,4.6,2.2,7,2.8
		c4.3,1.1,8.6,1.9,12.9,2.7c6.6,1.1,13.3,2.1,20,3.1c3.4,0.5,5.9,3.8,5.6,7.2c-0.3,3.6-3.3,6.4-7,6.3c-6.8-0.2-13.6-0.6-20.4-0.9
		c-3.3-0.1-6.7-0.3-10-0.5c-1.2-0.1-2.2,0.3-2.3,1.6c-0.1,1.4,0.8,1.9,2,2c11.2,1.2,22.5,2.1,33.8,1.7c4.5-0.2,8.4-1.6,12.5-3.3
		c7.7-3.4,15.6-6.3,23.5-9.4c0.5-0.2,1.1-0.3,1.7-0.4c3.1-0.6,5.5,0.5,6.6,2.8c1.3,2.7,0.6,6-1.9,7.8c-1.6,1.1-3.5,1.9-5.4,2.7
		c-13.2,5.6-26.3,11.2-39.5,16.8c-5.1,2.2-10.4,2.4-15.8,1.3c-14.1-2.7-28.1-5.4-42.2-8c-1-0.2-2.3,0.1-3.2,0.5
		C35.5,99.5,32.9,101.1,30.1,102.7z"/>
	<path d="M76.1,49.4c0-8.4,6.7-15.1,15.1-15.1c8.4,0,15.1,6.8,15.1,15.1c0,8.4-6.8,15.1-15.1,15.1C82.9,64.6,76.1,57.8,76.1,49.4z
		 M91.3,37.2c-6.8,0-12.2,5.4-12.3,12.2c0,6.8,5.4,12.3,12.3,12.3c6.8,0,12.2-5.4,12.2-12.2C103.5,42.7,98.1,37.2,91.3,37.2z"/>
	<path d="M24.8,105.3c-2.5,1.4-4.8,2.8-7.2,4c-1.3,0.7-2.6,0.3-3.4-1.1C9.6,100,5,91.9,0.5,83.7c-0.7-1.3-0.6-2.6,0.7-3.5
		c2.6-1.7,5.3-3.4,8.1-5.1C14.4,85.2,19.6,95.2,24.8,105.3z"/>
	<path d="M110.7,80.2c0-0.3,0.1-0.6,0-0.9c-0.7-3.4,1.1-4.7,4.1-5.5c4.6-1.3,9.1-2.9,13.7-4.2c2.1-0.6,4.1-0.4,5.8,1.1
		C126.5,73.9,118.7,77,110.7,80.2z"/>
	<path d="M124.4,66.3c-5.2,1.5-10.3,2.9-15.6,4.5c-0.6-0.7-1.4-1.7-2.4-2.8c0.7-0.2,1.3-0.5,1.8-0.6c3.7-0.9,7.3-1.7,11-2.5
		C121.2,64.3,122.6,64.8,124.4,66.3z"/>
	<circle cx="91.1" cy="49.4" r="4.8"/>
	<path d="M108.9,37.2c0-8.4,6.7-15.1,15.1-15.1c8.4,0,15.1,6.8,15.1,15.1c0,8.4-6.8,15.1-15.1,15.1
		C115.7,52.3,108.9,45.6,108.9,37.2z M124.1,25c-6.8,0-12.2,5.4-12.3,12.2c0,6.8,5.4,12.3,12.3,12.3c6.8,0,12.2-5.4,12.2-12.2
		C136.3,30.4,130.8,25,124.1,25z"/>
	<circle cx="123.8" cy="37.2" r="4.8"/>
</g>
</svg>
